<svg width="670" height="607" viewBox="0 0 670 607" fill="none" xmlns="http://www.w3.org/2000/svg">
<path d="M556 29.0001C561.065 9.66802 573.735 0 594 0C624.4 0 628.2 21.75 643.4 25.3749C653.535 27.7928 662.4 24.1679 670 14.4999C664.935 33.832 652.265 43.5 632 43.5C601.6 43.5 597.8 21.75 582.6 18.1251C572.465 15.7072 563.6 19.3321 556 29.0001ZM518 72.5001C523.065 53.168 535.735 43.5 556 43.5C586.4 43.5 590.2 65.25 605.4 68.8749C615.535 71.2928 624.4 67.6679 632 57.9999C626.935 77.332 614.265 87 594 87C563.6 87 559.8 65.25 544.6 61.6251C534.465 59.2072 525.6 62.8321 518 72.5001Z" fill="#55EDBF" fill-opacity="0.05"/>
<path d="M95.9697 0L26 69L47.5479 90.2692L138.913 0.069H96.0614L95.9697 0ZM96.0614 63.6525L58.3525 100.779L96.0614 138H139L101.361 100.805L139 63.6525H96.0614Z" fill="#3B7BF7" fill-opacity="0.05"/>
<path d="M298.929 456.22C298.906 456.158 298.879 456.096 298.847 456.037C298.805 455.921 298.753 455.808 298.692 455.7C298.644 455.633 298.591 455.569 298.533 455.509C298.469 455.42 298.398 455.336 298.322 455.255C298.254 455.196 298.169 455.147 298.096 455.094C298.012 455.027 297.924 454.966 297.831 454.91L269.572 439.973C269.214 439.784 268.809 439.684 268.397 439.684C267.985 439.684 267.58 439.784 267.223 439.973L238.957 454.918C238.866 454.975 238.78 455.037 238.699 455.104C238.619 455.154 238.542 455.208 238.47 455.266C238.393 455.345 238.322 455.429 238.258 455.517C238.208 455.581 238.144 455.638 238.1 455.708C238.04 455.817 237.989 455.93 237.947 456.045C237.924 456.107 237.886 456.164 237.865 456.228C237.811 456.411 237.784 456.6 237.783 456.789V485.154L214.232 497.604V442.099C214.232 441.909 214.205 441.72 214.15 441.536C214.132 441.471 214.091 441.415 214.067 441.353C214.026 441.238 213.975 441.126 213.915 441.019C213.874 440.949 213.806 440.892 213.756 440.825C213.692 440.736 213.621 440.652 213.545 440.571C213.472 440.514 213.395 440.46 213.316 440.41C213.234 440.344 213.147 440.283 213.058 440.226L184.789 425.289C184.432 425.1 184.027 425 183.614 425C183.202 425 182.797 425.1 182.44 425.289L154.177 440.226C154.086 440.281 153.999 440.344 153.919 440.412C153.838 440.462 153.76 440.516 153.687 440.574C153.611 440.653 153.541 440.737 153.479 440.825C153.426 440.892 153.361 440.949 153.317 441.019C153.257 441.126 153.207 441.238 153.167 441.353C153.135 441.412 153.107 441.472 153.082 441.533C153.028 441.718 153.001 441.908 153 442.099V530.964C152.999 531.343 153.107 531.716 153.313 532.045C153.519 532.374 153.816 532.647 154.174 532.837L210.688 562.712C210.814 562.77 210.945 562.818 211.079 562.857C211.14 562.879 211.199 562.911 211.264 562.927C211.658 563.024 212.073 563.024 212.467 562.927C212.526 562.914 212.576 562.884 212.629 562.868C212.771 562.827 212.908 562.775 213.04 562.712L269.572 532.837C269.93 532.647 270.227 532.374 270.433 532.045C270.639 531.716 270.747 531.343 270.746 530.964V502.593L297.826 488.278C298.186 488.087 298.484 487.812 298.691 487.481C298.897 487.149 299.004 486.773 299 486.391V456.784C299.002 456.594 298.978 456.405 298.929 456.22ZM183.612 429.658L207.154 442.097L183.609 454.544L160.069 442.099L183.612 429.658ZM209.52 445.83V500.092L195.86 507.312L185.969 512.541V458.287L199.629 451.067L209.52 445.83ZM209.52 557.087L157.709 529.713V445.841L167.6 451.064L181.257 458.287V516.285C181.263 516.367 181.275 516.448 181.292 516.528C181.299 516.635 181.315 516.741 181.339 516.846C181.369 516.929 181.406 517.01 181.451 517.088C181.483 517.181 181.525 517.271 181.574 517.358C181.628 517.431 181.687 517.501 181.75 517.568C181.809 517.648 181.874 517.723 181.944 517.794C182.012 517.854 182.097 517.897 182.17 517.951C182.25 518.015 182.335 518.074 182.423 518.129L209.488 532.193L209.52 557.087ZM211.869 528.47L188.365 516.255L213.052 503.207L240.137 488.893L263.662 501.326L246.399 510.372L211.869 528.47ZM266.04 529.702L214.226 557.1V532.22L252.603 512.113L266.04 505.064V529.702ZM266.04 497.593L256.149 492.383L242.489 485.162V460.522L252.38 465.751L266.04 472.977V497.593ZM268.388 469.217L244.843 456.773L268.388 444.331L291.928 456.77L268.388 469.217ZM270.737 497.593V472.977L284.427 465.751L294.314 460.522V485.154L270.737 497.593Z" fill="#FC2222" fill-opacity="0.05"/>
<path d="M555.558 538.828C555.023 538.828 554.488 538.666 554.004 538.397L549.114 535.324C548.375 534.893 548.732 534.731 548.987 534.65C549.955 534.3 550.158 534.219 551.202 533.572C551.304 533.518 551.457 533.545 551.559 533.599L555.328 535.971C555.456 536.052 555.66 536.052 555.787 535.971L570.508 526.969C570.635 526.888 570.737 526.726 570.737 526.537V508.56C570.737 508.371 570.661 508.209 570.508 508.129L555.787 499.153C555.66 499.072 555.481 499.072 555.328 499.153L540.607 508.129C540.455 508.209 540.378 508.398 540.378 508.56V526.537C540.378 526.699 540.48 526.861 540.607 526.942L544.632 529.395C546.822 530.554 548.172 529.179 548.172 527.831V510.069C548.172 509.827 548.35 509.611 548.605 509.611H550.464C550.693 509.611 550.897 509.8 550.897 510.069V527.831C550.897 530.931 549.318 532.683 546.542 532.683C545.701 532.683 545.014 532.683 543.154 531.713L539.283 529.368C538.341 528.775 537.73 527.696 537.73 526.537V508.56C537.73 507.401 538.315 506.296 539.283 505.73L554.004 496.727C554.946 496.161 556.169 496.161 557.086 496.727L571.807 505.73C572.749 506.323 573.36 507.401 573.36 508.56V526.537C573.36 527.696 572.775 528.802 571.807 529.368L557.086 538.37C556.653 538.666 556.118 538.828 555.558 538.828ZM567.452 521.093C567.452 517.724 565.312 516.834 560.779 516.188C556.194 515.541 555.736 515.217 555.736 514.085C555.736 513.142 556.118 511.902 559.505 511.902C562.536 511.902 563.657 512.603 564.115 514.759C564.166 514.975 564.319 515.109 564.523 515.109H566.433C566.56 515.109 566.662 515.055 566.738 514.975C566.815 514.867 566.866 514.759 566.84 514.624C566.535 510.905 564.217 509.18 559.505 509.18C555.303 509.18 552.807 511.066 552.807 514.193C552.807 517.616 555.303 518.532 559.327 518.964C564.141 519.476 564.523 520.204 564.523 521.201C564.523 522.953 563.198 523.68 560.091 523.68C556.194 523.68 555.328 522.656 555.048 520.608C555.023 520.392 554.845 520.23 554.615 520.23H552.705C552.476 520.23 552.272 520.419 552.272 520.689C552.272 523.303 553.622 526.43 560.066 526.43C564.777 526.43 567.452 524.489 567.452 521.093ZM581.332 507.589C581.332 509.234 580.059 510.581 578.505 510.581C576.951 510.581 575.678 509.234 575.678 507.589C575.678 505.891 577.002 504.598 578.505 504.598C580.033 504.571 581.332 505.891 581.332 507.589ZM580.874 507.589C580.874 506.188 579.804 505.083 578.48 505.083C577.181 505.083 576.111 506.188 576.111 507.589C576.111 508.991 577.181 510.123 578.48 510.123C579.804 510.096 580.874 508.964 580.874 507.589ZM579.728 509.261H579.065C579.04 509.099 578.938 508.236 578.938 508.209C578.887 508.021 578.836 507.913 578.607 507.913H578.047V509.261H577.435V505.891H578.53C578.912 505.891 579.651 505.891 579.651 506.781C579.651 507.401 579.269 507.536 579.04 507.616C579.473 507.643 579.498 507.94 579.575 508.371C579.6 508.641 579.651 509.099 579.728 509.261ZM579.014 506.889C579.014 506.43 578.709 506.43 578.556 506.43H578.047V507.374H578.53C578.938 507.374 579.014 507.077 579.014 506.889ZM509.969 468.48C509.969 467.753 509.612 467.106 509.026 466.755L493.414 457.241C493.159 457.079 492.854 456.998 492.548 456.971H492.395C492.09 456.971 491.809 457.079 491.529 457.241L475.942 466.755C475.357 467.106 475 467.78 475 468.48L475.025 494.086C475.025 494.436 475.204 494.76 475.484 494.948C475.764 495.137 476.121 495.137 476.426 494.948L485.697 489.315C486.283 488.938 486.639 488.291 486.639 487.59V475.623C486.639 474.922 486.996 474.248 487.582 473.898L491.529 471.499C491.835 471.311 492.14 471.23 492.472 471.23C492.803 471.23 493.134 471.311 493.414 471.499L497.362 473.898C497.947 474.248 498.304 474.922 498.304 475.623V487.59C498.304 488.291 498.66 488.965 499.246 489.315L508.517 494.948C508.797 495.137 509.179 495.137 509.459 494.948C509.739 494.787 509.918 494.436 509.918 494.086L509.969 468.48ZM595.34 440.53V488.075C595.34 488.776 594.983 489.45 594.397 489.8L578.785 499.342C578.199 499.692 577.486 499.692 576.9 499.342L561.288 489.8C560.702 489.45 560.346 488.776 560.346 488.075V468.993C560.346 468.292 560.702 467.618 561.288 467.268L576.9 457.726C577.486 457.376 578.199 457.376 578.785 457.726L582.682 460.098C583.115 460.368 583.675 460.017 583.675 459.505V434.169C583.675 433.414 584.439 432.929 585.076 433.307L594.372 438.805C594.958 439.129 595.34 439.802 595.34 440.53ZM583.624 475.273C583.624 475.084 583.522 474.922 583.395 474.841L578.047 471.553C577.894 471.472 577.715 471.472 577.563 471.553L572.214 474.841C572.061 474.922 571.985 475.084 571.985 475.273V481.822C571.985 482.011 572.087 482.173 572.214 482.254L577.563 485.515C577.715 485.596 577.894 485.596 578.021 485.515L583.37 482.254C583.522 482.173 583.599 482.011 583.599 481.822V475.273H583.624ZM637.058 475.084C637.643 474.734 638 474.06 638 473.359V468.75C638 468.049 637.643 467.375 637.058 467.025L621.547 457.484C620.961 457.133 620.248 457.133 619.662 457.484L604.05 467.025C603.464 467.375 603.108 468.049 603.108 468.75V487.833C603.108 488.561 603.464 489.207 604.05 489.558L619.561 498.911C620.121 499.261 620.834 499.261 621.42 498.911L630.792 493.385C631.429 493.008 631.429 492.037 630.792 491.66L615.078 482.119C614.772 481.93 614.594 481.607 614.594 481.256V475.273C614.594 474.922 614.772 474.599 615.078 474.41L619.968 471.418C620.248 471.23 620.63 471.23 620.91 471.418L625.8 474.41C626.081 474.599 626.284 474.922 626.284 475.273V479.962C626.284 480.717 627.074 481.202 627.711 480.825L637.058 475.084ZM617.37 476.027C617.268 476.108 617.192 476.216 617.192 476.351V480.016C617.192 480.151 617.268 480.286 617.37 480.34L620.376 482.173C620.477 482.254 620.63 482.254 620.732 482.173L623.737 480.34C623.839 480.259 623.916 480.151 623.916 480.016V476.351C623.916 476.216 623.839 476.081 623.737 476.027L620.732 474.195C620.63 474.114 620.477 474.114 620.376 474.195L617.37 476.027ZM552.629 487.752V468.777C552.629 468.076 552.221 467.402 551.635 467.052L536.074 457.564C535.539 457.241 534.801 457.187 534.189 457.564L518.628 467.052C518.042 467.402 517.635 468.049 517.635 468.777V487.752C517.635 488.507 518.119 489.154 518.653 489.477L534.24 498.964C534.852 499.342 535.565 499.315 536.125 498.964L551.661 489.477C552.119 489.207 552.45 488.749 552.578 488.21C552.603 488.075 552.629 487.914 552.629 487.752ZM533.705 454.087L533.502 454.222H533.782L533.705 454.087ZM553.113 489.18L553.011 488.992V489.234L553.113 489.18Z" fill="#139710" fill-opacity="0.05"/>
<path d="M418 271.583C426.215 271.583 432.875 264.924 432.875 256.708C432.875 248.493 426.215 241.833 418 241.833C409.785 241.833 403.125 248.493 403.125 256.708C403.125 264.924 409.785 271.583 418 271.583Z" fill="#5C61E0" fill-opacity="0.05"/>
<path d="M376.35 286.283L373.058 285.442C348.608 279.267 334.583 268.767 334.583 256.675C334.583 244.575 348.617 234.083 373.058 227.908L376.35 227.075L377.275 230.333C379.746 238.864 382.912 247.178 386.742 255.192L387.45 256.675L386.742 258.158C382.908 266.183 379.733 274.5 377.275 283.033L376.35 286.283ZM371.542 235.492C352.967 240.725 341.558 248.708 341.558 256.675C341.558 264.625 352.958 272.617 371.542 277.842C373.817 270.608 376.567 263.533 379.75 256.675C376.544 249.805 373.801 242.728 371.542 235.492ZM459.642 286.283L458.725 283.017C456.247 274.484 453.078 266.168 449.25 258.15L448.542 256.675L449.25 255.183C453.083 247.175 456.242 238.85 458.725 230.317L459.642 227.067L462.933 227.9C487.392 234.075 501.408 244.567 501.408 256.675C501.408 268.775 487.383 279.267 462.933 285.442L459.642 286.283ZM456.225 256.675C459.558 263.892 462.333 270.992 464.45 277.842C483.033 272.617 494.442 264.625 494.442 256.675C494.442 248.708 483.042 240.733 464.45 235.492C462.177 242.726 459.43 249.803 456.225 256.675Z" fill="#5C61E0" fill-opacity="0.05"/>
<path d="M371.492 235.458L370.575 232.208C363.692 207.975 365.775 190.617 376.3 184.567C386.592 178.608 403.15 185.65 420.492 203.442L422.858 205.875L420.492 208.3C414.332 214.706 408.703 221.601 403.658 228.917L402.717 230.267L401.083 230.4C392.213 231.097 383.415 232.515 374.775 234.642L371.492 235.458ZM384.675 189.383C382.808 189.383 381.158 189.792 379.767 190.592C372.867 194.567 371.65 208.408 376.4 227.092C383.825 225.45 391.317 224.275 398.867 223.617C403.238 217.417 408.006 211.508 413.142 205.925C402.283 195.367 392.033 189.383 384.675 189.383ZM451.317 330.917C441.417 330.917 428.7 323.45 415.5 309.9L413.142 307.475L415.5 305.058C421.66 298.642 427.293 291.739 432.342 284.417L433.275 283.083L434.892 282.925C443.765 282.241 452.567 280.828 461.208 278.7L464.5 277.867L465.425 281.125C472.275 305.342 470.2 322.725 459.692 328.775C457.14 330.221 454.249 330.961 451.317 330.917ZM422.858 307.417C433.708 317.975 443.967 323.967 451.317 323.967C453.192 323.967 454.842 323.55 456.225 322.758C463.133 318.775 464.358 304.908 459.592 286.225C452.175 287.875 444.675 289.058 437.108 289.717C432.756 295.926 427.995 301.839 422.858 307.417Z" fill="#5C61E0" fill-opacity="0.05"/>
<path d="M464.5 235.458L461.208 234.633C452.567 232.5 443.765 231.082 434.892 230.392L433.275 230.25L432.342 228.9C427.3 221.58 421.667 214.685 415.5 208.283L413.142 205.858L415.5 203.442C432.833 185.658 449.383 178.617 459.692 184.567C470.208 190.625 472.3 207.983 465.425 232.208L464.5 235.458ZM437.108 223.617C445.058 224.325 452.592 225.517 459.592 227.092C464.35 208.408 463.133 194.567 456.225 190.583C449.358 186.608 436.433 192.692 422.858 205.925C427.992 211.508 432.758 217.408 437.108 223.617ZM384.675 330.917C381.743 330.959 378.852 330.219 376.3 328.775C365.775 322.725 363.692 305.35 370.567 281.125L371.467 277.867L374.758 278.7C382.792 280.725 391.642 282.15 401.075 282.925L402.692 283.083L403.633 284.417C408.667 291.733 414.3 298.642 420.467 305.058L422.833 307.475L420.467 309.9C407.275 323.458 394.558 330.917 384.675 330.917ZM376.4 286.233C371.65 304.917 372.867 318.783 379.767 322.767C386.642 326.683 399.525 320.642 413.142 307.417C408.008 301.832 403.24 295.923 398.867 289.725C391.309 289.057 383.804 287.89 376.4 286.233Z" fill="#5C61E0" fill-opacity="0.05"/>
<path d="M418 290.608C412.275 290.608 406.4 290.367 400.5 289.875L398.867 289.733L397.925 288.383C394.598 283.599 391.468 278.681 388.542 273.642C385.637 268.589 382.938 263.421 380.45 258.15L379.75 256.675L380.45 255.183C382.942 249.917 385.633 244.75 388.542 239.7C391.433 234.733 394.592 229.767 397.925 224.95L398.867 223.617L400.5 223.467C412.141 222.492 423.843 222.492 435.483 223.467L437.1 223.625L438.042 224.958C444.707 234.531 450.56 244.644 455.542 255.192L456.233 256.683L455.542 258.158C450.574 268.713 444.72 278.827 438.042 288.392L437.1 289.742L435.483 289.883C429.6 290.358 423.717 290.608 418 290.608ZM402.717 283.075C413.008 283.85 422.992 283.85 433.275 283.075C439.016 274.668 444.119 265.844 448.542 256.675C444.135 247.498 439.031 238.672 433.275 230.275C423.104 229.492 412.888 229.492 402.717 230.275C396.956 238.669 391.852 247.495 387.45 256.675C391.882 265.839 396.985 274.663 402.717 283.075Z" fill="#5C61E0" fill-opacity="0.05"/>
</svg>
